<?xml version="1.0" encoding="utf-8"?>
<!-- Generator: Adobe Illustrator 22.1.0, SVG Export Plug-In . SVG Version: 6.00 Build 0)  -->
<svg version="1.1" id="Ebene_1" xmlns="http://www.w3.org/2000/svg" xmlns:xlink="http://www.w3.org/1999/xlink" x="0px" y="0px"
	 viewBox="0 0 1700.8 1700.8" style="enable-background:new 0 0 1700.8 1700.8;" xml:space="preserve">
<style type="text/css">
	.st0{fill:#00768E;}
	.st1{fill:none;}
	.st2{fill:#FFFFFF;}
	.st3{font-family:'Impact';}
	.st4{font-size:658.8766px;}
</style>
<path class="st0" d="M1290.4,1322.7h-880C184.8,1322.7,0,1143.1,0,923.7V777.1c0-219.5,184.8-399,410.5-399h879.9
	c225.7,0,410.5,179.6,410.5,399v146.6C1700.9,1143.1,1516.1,1322.7,1290.4,1322.7z"/>
<g id="logo">
</g>
<rect x="567.7" y="500.4" class="st1" width="925.4" height="189.7"/>
<rect x="436" y="675.4" class="st1" width="1186.9" height="525"/>
<text transform="matrix(1.0147 0 0 1 546.0137 1104.8975)" class="st2 st3 st4">LOG</text>
<path class="st2" d="M127.9,846.5l24.5-46.6l51.4,81l-75.9,108L52,846.5l127.2-190.6l115,166.5l-19.6,229.5l-132.1,84L52,997.9
	l-36.7-216l139.5-263.3c0,0,117.5-51.8,124.8-51.8c7.3,0,146.8,199.6,151.7,225.8s12.2,371.3,12.2,371.3l-139.5,180l-141.9-42
	l132.1-15l83.2-138l-19.6-330l-105.2-153l-85.6,21l-127.2,204l26.9,195l78.3,96l84.4-60l18.4-189l-75.9-108L83.8,846.5l44,87
	l31.8-52.6l-9.8-34.4H127.9z"/>
</svg>
